<svg width="88" height="69" viewBox="0 0 88 69" fill="none" xmlns="http://www.w3.org/2000/svg">
<g clip-path="url(#clip0_1_18)">
<path d="M29.3 32.4C32.6333 33.8667 35.2333 36.0667 37.1 39C38.9667 41.9333 39.9 45.4 39.9 49.4C39.9 55.1333 38.1 59.8 34.5 63.4C30.9 66.8667 26.3 68.6 20.7 68.6C15.1 68.6 10.4333 66.8 6.7 63.2C3.1 59.6 1.3 55 1.3 49.4C1.3 46.7333 1.63333 44.0667 2.3 41.4C2.96667 38.7333 4.43333 34.7333 6.7 29.4L18.3 0.600006H38.1L29.3 32.4ZM76.5 32.4C79.8333 33.8667 82.4333 36.0667 84.3 39C86.1667 41.9333 87.1 45.4 87.1 49.4C87.1 55.1333 85.3 59.8 81.7 63.4C78.1 66.8667 73.5 68.6 67.9 68.6C62.3 68.6 57.6333 66.8 53.9 63.2C50.3 59.6 48.5 55 48.5 49.4C48.5 46.7333 48.8333 44.0667 49.5 41.4C50.1667 38.7333 51.6333 34.7333 53.9 29.4L65.5 0.600006H85.3L76.5 32.4Z" fill="#1E1E1E"/>
</g>
<defs>
<clipPath id="clip0_1_18">
<rect width="87" height="69" fill="white" transform="translate(0.5)"/>
</clipPath>
</defs>
</svg>
